#!OML:ASF X:\für Bonn\!DataBase\2005_08_11_Bastian_Final\c3d\Bastian.ASF
:FULLY-SPECIFIED
:DEGREES
95
root -21.4645 17.6033 0.0953758 84.0956 -81.2061 -90.7019
lowerback 4.55581 2.95438 9.07137
upperback 3.0234 4.20427 -1.92256
thorax 1.41411 2.27222 -7.21652
lowerneck -10.1772 -9.19888 -4.07657
upperneck -9.48132 -11.8575 12.5008
head -0.211409 -6.04365 4.37831
rclavicle -4.27387e-015 3.18055e-015
rhumerus 59.6217 9.58646 4.71991
rradius 31.771
rwrist -5.06307
rhand -23.916 3.83977
rfingers 7.12502
rthumb 2.55844 -26.1246
lclavicle -4.27387e-015 3.18055e-015
lhumerus -15.7348 -23.1838 84.1953
lradius 23.6039
lwrist 18.9149
lhand -12.4656 -8.67735
lfingers 7.12502
lthumb 13.6083 20.8579
rfemur 10.3322 2.3217 25.9035
rtibia 30.3788
rfoot -10.8281 -0.838743
rtoes -25.1877
lfemur -6.32041 4.05347 -12.2492
ltibia 28.1312
lfoot -6.73938 -11.066
ltoes -3.97291
96
root -21.4732 17.6036 0.100789 84.1881 -81.1803 -90.7445
lowerback 4.60006 2.98887 9.0747
upperback 3.02818 4.25386 -1.94756
thorax 1.4064 2.29717 -7.24783
lowerneck -10.2004 -9.24566 -4.08759
upperneck -9.53684 -11.9165 12.5543
head -0.216136 -6.07525 4.3958
rclavicle -2.97183e-014 2.70347e-014
rhumerus 59.6691 9.6661 5.60619
rradius 31.5678
rwrist -5.6705
rhand -23.191 3.68416
rfingers 7.12502
rthumb 3.25867 -26.2707
lclavicle -2.97183e-014 2.70347e-014
lhumerus -15.9236 -23.1456 84.3332
lradius 23.3065
lwrist 18.681
lhand -12.4509 -8.84407
lfingers 7.12502
lthumb 13.6225 20.6902
rfemur 10.3011 2.35264 25.9186
rtibia 30.3982
rfoot -10.8047 -0.852823
rtoes -25.373
lfemur -6.35202 4.09585 -12.2376
ltibia 28.1469
lfoot -6.77645 -11.1027
ltoes -3.97434
97
root -21.4813 17.6034 0.106955 84.3713 -81.1551 -90.8892
lowerback 4.66601 3.02289 9.10135
upperback 3.02172 4.30627 -1.9812
thorax 1.37805 2.32274 -7.30348
lowerneck -10.1892 -9.28434 -4.09591
upperneck -9.59818 -11.9647 12.6073
head -0.229702 -6.1025 4.4154
rclavicle -5.40694e-014 -1.59028e-015
rhumerus 59.7233 9.79151 6.51766
rradius 31.4013
rwrist -6.5046
rhand -22.5259 3.40777
rfingers 7.12502
rthumb 3.9009 -26.5363
lclavicle -5.40694e-014 -1.59028e-015
lhumerus -16.1222 -23.0334 84.4462
lradius 22.9574
lwrist 18.4702
lhand -12.4024 -9.01625
lfingers 7.12502
lthumb 13.6692 20.5149
rfemur 10.2745 2.35841 25.9124
rtibia 30.4123
rfoot -10.7942 -0.827248
rtoes -25.411
lfemur -6.37308 4.17524 -12.2245
ltibia 28.1657
lfoot -6.81105 -11.1607
ltoes -3.96903
98
root -21.4894 17.6041 0.111729 84.4202 -81.1289 -90.8915
lowerback 4.7249 3.05226 9.09622
upperback 3.01346 4.35074 -2.00031
thorax 1.34633 2.3433 -7.32531
lowerneck -10.1695 -9.32255 -4.10563
upperneck -9.67212 -12.0114 12.6546
head -0.249337 -6.12959 4.43434
rclavicle -7.85199e-015 -1.74931e-014
rhumerus 59.7626 9.90772 7.34477
rradius 31.2291
rwrist -7.40425
rhand -21.9002 3.06752
rfingers 7.12502
rthumb 4.50517 -26.8646
lclavicle -7.85199e-015 -1.74931e-014
lhumerus -16.2947 -22.8158 84.5625
lradius 22.5015
lwrist 18.1876
lhand -12.365 -9.23834
lfingers 7.12502
lthumb 13.7052 20.2904
rfemur 10.2413 2.37652 25.9319
rtibia 30.428
rfoot -10.7772 -0.850578
rtoes -25.5923
lfemur -6.39947 4.20608 -12.2067
ltibia 28.1787
lfoot -6.83689 -11.2015
ltoes -3.85142
99
root -21.497 17.6042 0.11708 84.5542 -81.0826 -90.9849
lowerback 4.78126 3.08601 9.14753
upperback 3.01953 4.40212 -2.03393
thorax 1.33868 2.37018 -7.39393
lowerneck -10.1689 -9.36825 -4.10939
upperneck -9.74144 -12.0692 12.7205
head -0.262222 -6.16212 4.45677
rclavicle 2.20651e-014 -1.74931e-014
rhumerus 59.7723 9.98524 7.99368
rradius 31.0419
rwrist -8.33542
rhand -21.3146 2.63197
rfingers 7.12502
rthumb 5.07054 -27.2874
lclavicle 2.20651e-014 -1.74931e-014
lhumerus -16.4197 -22.6636 84.6325
lradius 22
lwrist 17.9732
lhand -12.3408 -9.3635
lfingers 7.12502
lthumb 13.7286 20.1636
rfemur 10.2125 2.38587 25.9576
rtibia 30.4376
rfoot -10.7553 -0.83834
rtoes -25.7239
lfemur -6.42707 4.30269 -12.1647
ltibia 28.1947
lfoot -6.8716 -11.2889
ltoes -3.84375
100
root -21.5043 17.6047 0.122136 84.6941 -81.0447 -91.0817
lowerback 4.84012 3.11653 9.17057
upperback 3.01887 4.44873 -2.06041
thorax 1.31865 2.39323 -7.43943
lowerneck -10.1652 -9.39884 -4.09796
upperneck -9.81075 -12.1081 12.7717
head -0.279384 -6.18571 4.47279
rclavicle 1.75924e-014 9.54166e-015
rhumerus 59.781 10.0663 8.55551
rradius 30.8609
rwrist -9.40133
rhand -20.7355 2.16649
rfingers 7.12502
rthumb 5.6297 -27.7387
lclavicle 1.75924e-014 9.54166e-015
lhumerus -16.5678 -22.4548 84.7048
lradius 21.4794
lwrist 17.7597
lhand -12.3215 -9.49363
lfingers 7.12502
lthumb 13.7472 20.0322
rfemur 10.1879 2.42042 25.9875
rtibia 30.4457
rfoot -10.7481 -0.848853
rtoes -25.9173
lfemur -6.45521 4.37244 -12.1342
ltibia 28.2076
lfoot -6.89466 -11.3585
ltoes -3.8343
101
root -21.5118 17.6055 0.127151 84.7896 -81.0341 -91.1225
lowerback 4.87943 3.14757 9.15837
upperback 3.01668 4.49309 -2.09065
thorax 1.30478 2.41486 -7.46771
lowerneck -10.1528 -9.4329 -4.05353
upperneck -9.89126 -12.1545 12.782
head -0.306492 -6.21436 4.46901
rclavicle -6.0033e-014 3.81667e-014
rhumerus 59.7864 10.165 9.07319
rradius 30.6961
rwrist -10.5805
rhand -20.1778 1.63086
rfingers 7.12502
rthumb 6.16813 -28.2593
lclavicle -6.0033e-014 3.81667e-014
lhumerus -16.7072 -22.1592 84.769
lradius 20.9093
lwrist 17.4611
lhand -12.2769 -9.5126
lfingers 7.12502
lthumb 13.7902 20.0103
rfemur 10.1491 2.43417 25.9775
rtibia 30.4451
rfoot -10.7303 -0.84353
rtoes -26.0308
lfemur -6.4966 4.4128 -12.1404
ltibia 28.2218
lfoot -6.92943 -11.3874
ltoes -3.87624
102
root -21.5188 17.6057 0.131492 84.8984 -81.0086 -91.1992
lowerback 4.95602 3.18294 9.16337
upperback 3.01195 4.54721 -2.11716
thorax 1.2706 2.44046 -7.50457
lowerneck -10.1285 -9.46663 -4.03939
upperneck -9.97227 -12.1971 12.8306
head -0.331075 -6.24077 4.48504
rclavicle -3.8266e-014 6.36111e-015
rhumerus 59.7763 10.3399 9.76129
rradius 30.5951
rwrist -12.0979
rhand -19.6997 1.09063
rfingers 7.12502
rthumb 6.6297 -28.7856
lclavicle -3.8266e-014 6.36111e-015
lhumerus -16.8641 -21.8222 84.8261
lradius 20.3568
lwrist 17.147
lhand -12.202 -9.44248
lfingers 7.12502
lthumb 13.8624 20.0755
rfemur 10.1327 2.45226 25.9891
rtibia 30.4466
rfoot -10.709 -0.843186
rtoes -26.1845
lfemur -6.50832 4.47429 -12.1218
ltibia 28.2328
lfoot -6.96078 -11.44
ltoes -3.89108
103
root -21.526 17.6063 0.136505 84.9358 -80.9654 -91.1965
lowerback 5.0077 3.21093 9.19385
upperback 3.01461 4.58994 -2.14427
thorax 1.25827 2.46219 -7.55452
lowerneck -10.1076 -9.50579 -4.02338
upperneck -10.0437 -12.2477 12.8865
head -0.350762 -6.271 4.50221
rclavicle -9.64106e-015 -2.38542e-014
rhumerus 59.7458 10.5092 10.3482
rradius 30.5008
rwrist -13.6249
rhand -19.2684 0.606854
rfingers 7.12502
rthumb 7.04605 -29.2559
lclavicle -9.64106e-015 -2.38542e-014
lhumerus -17.0154 -21.522 84.8606
lradius 19.8071
lwrist 16.9196
lhand -12.1394 -9.26058
lfingers 7.12502
lthumb 13.9226 20.2533
rfemur 10.1136 2.49361 26.0291
rtibia 30.4432
rfoot -10.6782 -0.86763
rtoes -26.2214
lfemur -6.53258 4.50551 -12.0859
ltibia 28.2393
lfoot -6.96756 -11.4977
ltoes -3.70466
104
root -21.5325 17.6064 0.140902 85.0389 -80.9435 -91.2424
lowerback 5.05049 3.24464 9.19685
upperback 3.01116 4.63878 -2.17809
thorax 1.24389 2.48632 -7.59572
lowerneck -10.0979 -9.53773 -3.96287
upperneck -10.1202 -12.293 12.8958
head -0.377394 -6.29951 4.4951
rclavicle -1.35174e-014 -2.70347e-014
rhumerus 59.718 10.7391 11.1168
rradius 30.493
rwrist -15.4125
rhand -18.8633 0.0984697
rfingers 7.12502
rthumb 7.43707 -29.7508
lclavicle -1.35174e-014 -2.70347e-014
lhumerus -17.1743 -21.1979 84.8842
lradius 19.2553
lwrist 16.67
lhand -12.0649 -8.98061
lfingers 7.12502
lthumb 13.9945 20.5283
rfemur 10.0708 2.51031 26.0361
rtibia 30.4448
rfoot -10.6532 -0.849989
rtoes -26.4607
lfemur -6.57675 4.56512 -12.0743
ltibia 28.242
lfoot -6.99543 -11.5494
ltoes -3.70784
105
root -21.5398 17.607 0.144974 85.1065 -80.9375 -91.2797
lowerback 5.10588 3.27857 9.18916
upperback 3.01862 4.68783 -2.21876
thorax 1.23377 2.51096 -7.63867
lowerneck -10.066 -9.56995 -3.9188
upperneck -10.22 -12.3356 12.9419
head -0.411764 -6.32819 4.50623
rclavicle -3.69739e-014 -6.36111e-015
rhumerus 59.6957 11.0354 12.1048
rradius 30.5641
rwrist -17.4229
rhand -18.4776 -0.399154
rfingers 7.12502
rthumb 7.80939 -30.2349
lclavicle -3.69739e-014 -6.36111e-015
lhumerus -17.3395 -20.9726 84.9067
lradius 18.711
lwrist 16.5462
lhand -11.9583 -8.60661
lfingers 7.12502
lthumb 14.0972 20.8952
rfemur 10.0656 2.52831 26.0295
rtibia 30.4323
rfoot -10.6267 -0.853347
rtoes -26.5611
lfemur -6.58592 4.56271 -12.0806
ltibia 28.2497
lfoot -7.02255 -11.5525
ltoes -3.516
106
root -21.5463 17.6072 0.149119 85.1881 -80.9142 -91.314
lowerback 5.15202 3.31168 9.18573
upperback 3.01891 4.73557 -2.24781
thorax 1.22036 2.5345 -7.67134
lowerneck -10.0516 -9.60963 -3.87242
upperneck -10.304 -12.3894 12.9594
head -0.43935 -6.36105 4.50469
rclavicle 8.74653e-015 2.22639e-014
rhumerus 59.6744 11.3587 13.1746
rradius 30.6721
rwrist -19.4516
rhand -18.1567 -0.837011
rfingers 7.12502
rthumb 8.11911 -30.661
lclavicle 8.74653e-015 2.22639e-014
lhumerus -17.4979 -20.6635 84.9299
lradius 18.1274
lwrist 16.3579
lhand -11.8936 -8.21015
lfingers 7.12502
lthumb 14.1595 21.2873
rfemur 10.0341 2.56068 26.0421
rtibia 30.427
rfoot -10.6133 -0.840011
rtoes -26.6027
lfemur -6.61596 4.57103 -12.0729
ltibia 28.2507
lfoot -7.04994 -11.5554
ltoes -3.53775
107
root -21.5536 17.6078 0.152742 85.2748 -80.8712 -91.3593
lowerback 5.18751 3.34298 9.20605
upperback 3.0291 4.78041 -2.27796
thorax 1.22513 2.55825 -7.71746
lowerneck -10.0564 -9.63852 -3.80958
upperneck -10.3745 -12.4311 12.9789
head -0.461251 -6.38762 4.50011
rclavicle 6.30147e-014 -1.27222e-014
rhumerus 59.6271 11.6291 14.0528
rradius 30.7735
rwrist -21.2615
rhand -17.7938 -1.23122
rfingers 7.12502
rthumb 8.46933 -31.0414
lclavicle 6.30147e-014 -1.27222e-014
lhumerus -17.6404 -20.3031 84.9147
lradius 17.545
lwrist 16.1394
lhand -11.7775 -7.75209
lfingers 7.12502
lthumb 14.2714 21.7375
rfemur 10.0239 2.59731 26.0829
rtibia 30.4092
rfoot -10.5966 -0.85658
rtoes -26.6662
lfemur -6.63444 4.58269 -12.034
ltibia 28.258
lfoot -7.06924 -11.5892
ltoes -3.36883
108
root -21.5604 17.6086 0.156532 85.3001 -80.8662 -91.3466
lowerback 5.23423 3.37848 9.18317
upperback 3.03552 4.83015 -2.30957
thorax 1.2168 2.5829 -7.7417
lowerneck -10.0373 -9.68312 -3.80468
upperneck -10.4613 -12.4869 13.037
head -0.484393 -6.42081 4.52045
rclavicle -3.81667e-014 -1.59028e-015
rhumerus 59.5662 11.8882 14.8828
rradius 30.866
rwrist -22.8773
rhand -17.3857 -1.61982
rfingers 7.12502
rthumb 8.86312 -31.4137
lclavicle -3.81667e-014 -1.59028e-015
lhumerus -17.7461 -19.7766 84.8837
lradius 16.8786
lwrist 15.7706
lhand -11.6463 -7.36772
lfingers 7.12502
lthumb 14.3979 22.1129
rfemur 10.0082 2.60763 26.0705
rtibia 30.3942
rfoot -10.5936 -0.827747
rtoes -26.6851
lfemur -6.65405 4.57453 -12.0414
ltibia 28.26
lfoot -7.08822 -11.5924
ltoes -3.27011
109
root -21.5674 17.6079 0.159827 85.4308 -80.8203 -91.4474
lowerback 5.28518 3.40843 9.20427
upperback 3.03679 4.87506 -2.33453
thorax 1.20328 2.60541 -7.78436
lowerneck -10.0001 -9.71946 -3.76445
upperneck -10.5452 -12.5354 13.0652
head -0.51504 -6.45161 4.52552
rclavicle -3.71727e-014 4.77083e-015
rhumerus 59.4989 12.1011 15.5346
rradius 30.9478
rwrist -24.1775
rhand -16.8939 -2.0138
rfingers 7.12502
rthumb 9.33769 -31.787
lclavicle -3.71727e-014 4.77083e-015
lhumerus -17.8917 -19.2686 84.8301
lradius 16.2359
lwrist 15.4204
lhand -11.5155 -6.97258
lfingers 7.12502
lthumb 14.5238 22.499
rfemur 10.0128 2.65077 26.1162
rtibia 30.3661
rfoot -10.5828 -0.842851
rtoes -26.8264
lfemur -6.66751 4.58641 -11.9979
ltibia 28.2741
lfoot -7.11025 -11.6084
ltoes -3.10908
